<?xml version="1.0" standalone="no"?>
<!DOCTYPE svg PUBLIC "-//W3C//DTD SVG 20010904//EN"
 "http://www.w3.org/TR/2001/REC-SVG-20010904/DTD/svg10.dtd">
<svg version="1.0" xmlns="http://www.w3.org/2000/svg"
 width="600.000000pt" height="338.000000pt" viewBox="0 0 600.000000 338.000000"
 preserveAspectRatio="xMidYMid meet">

<g transform="translate(0.000000,338.000000) scale(0.100000,-0.100000)"
fill="#000000" stroke="none">
<path d="M720 2819 c0 -26 3 -30 23 -27 16 2 23 11 25 31 3 23 0 27 -22 27
-22 0 -26 -4 -26 -31z"/>
<path d="M1894 2836 c-10 -26 4 -46 31 -46 23 0 26 4 23 28 -3 31 -44 45 -54
18z"/>
<path d="M3094 2836 c-10 -26 4 -46 31 -46 23 0 26 4 23 28 -3 31 -44 45 -54
18z"/>
<path d="M4337 2843 c-4 -3 -7 -17 -7 -30 0 -21 4 -24 28 -21 28 3 36 23 19
46 -10 13 -30 16 -40 5z"/>
<path d="M5480 2836 c-18 -22 -5 -46 25 -46 23 0 26 4 23 27 -3 32 -29 41 -48
19z"/>
<path d="M464 2826 c-10 -26 4 -48 28 -44 17 2 23 10 23 28 0 18 -6 26 -23 28
-13 2 -25 -3 -28 -12z"/>
<path d="M1647 2834 c-4 -4 -7 -18 -7 -31 0 -21 4 -24 28 -21 21 2 27 8 27 28
0 18 -6 26 -20 28 -12 2 -24 0 -28 -4z"/>
<path d="M2847 2834 c-4 -4 -7 -18 -7 -31 0 -21 4 -24 28 -21 21 2 27 8 27 28
0 18 -6 26 -20 28 -12 2 -24 0 -28 -4z"/>
<path d="M4074 2826 c-10 -26 4 -48 28 -44 17 2 23 10 23 28 0 18 -6 26 -23
28 -13 2 -25 -3 -28 -12z"/>
<path d="M5227 2834 c-4 -4 -7 -18 -7 -31 0 -21 4 -24 28 -21 21 2 27 8 27 28
0 18 -6 26 -20 28 -12 2 -24 0 -28 -4z"/>
<path d="M609 2798 c-5 -16 -3 -61 3 -64 15 -10 30 7 18 21 -8 9 -8 15 0 20
11 7 4 25 -11 25 -5 0 -9 -1 -10 -2z"/>
<path d="M1784 2773 c4 -9 1 -20 -6 -24 -9 -6 -8 -10 5 -15 10 -4 23 -2 30 5
8 8 8 11 -2 11 -8 0 -10 7 -6 20 5 15 2 20 -10 20 -12 0 -15 -5 -11 -17z"/>
<path d="M2985 2770 c4 -13 2 -20 -6 -20 -10 0 -10 -3 -2 -11 8 -8 16 -8 30 0
10 6 13 11 5 11 -9 0 -11 7 -7 20 5 14 2 20 -10 20 -12 0 -15 -6 -10 -20z"/>
<path d="M4215 2770 c4 -13 2 -20 -7 -20 -8 0 -6 -4 5 -11 21 -13 44 -2 28 14
-7 7 -7 14 0 24 9 10 7 13 -10 13 -18 0 -21 -4 -16 -20z"/>
<path d="M5364 2773 c4 -9 1 -20 -6 -24 -9 -6 -8 -10 5 -15 10 -4 23 -2 30 5
8 8 8 11 -2 11 -8 0 -10 7 -6 20 5 15 2 20 -10 20 -12 0 -15 -5 -11 -17z"/>
<path d="M717 1773 c-3 -5 -1 -18 4 -31 12 -32 43 -25 47 11 3 23 0 27 -22 27
-14 0 -27 -3 -29 -7z"/>
<path d="M1894 1766 c-10 -26 4 -48 28 -44 17 2 23 10 23 28 0 18 -6 26 -23
28 -13 2 -25 -3 -28 -12z"/>
<path d="M3094 1766 c-10 -26 4 -48 28 -44 17 2 23 10 23 28 0 18 -6 26 -23
28 -13 2 -25 -3 -28 -12z"/>
<path d="M4337 1773 c-4 -3 -7 -17 -7 -30 0 -21 4 -24 28 -21 28 3 36 23 19
46 -10 13 -30 16 -40 5z"/>
<path d="M5480 1766 c-18 -22 -5 -46 25 -46 23 0 26 4 23 27 -3 32 -29 41 -48
19z"/>
<path d="M464 1756 c-10 -25 2 -43 28 -42 33 1 33 50 0 54 -13 2 -25 -3 -28
-12z"/>
<path d="M1644 1756 c-10 -26 4 -48 28 -44 17 2 23 10 23 28 0 18 -6 26 -23
28 -13 2 -25 -3 -28 -12z"/>
<path d="M2844 1756 c-10 -26 4 -48 28 -44 17 2 23 10 23 28 0 18 -6 26 -23
28 -13 2 -25 -3 -28 -12z"/>
<path d="M4074 1756 c-10 -26 4 -48 28 -44 17 2 23 10 23 28 0 18 -6 26 -23
28 -13 2 -25 -3 -28 -12z"/>
<path d="M5224 1756 c-10 -26 4 -48 28 -44 17 2 23 10 23 28 0 18 -6 26 -23
28 -13 2 -25 -3 -28 -12z"/>
<path d="M608 1723 c-7 -17 -2 -53 7 -52 6 0 9 9 8 20 -2 10 2 19 8 19 5 0 7
5 4 10 -7 12 -22 13 -27 3z"/>
<path d="M1782 1690 c-1 -32 4 -35 28 -20 11 7 12 10 2 10 -9 0 -11 7 -7 20 4
14 2 20 -8 20 -9 0 -14 -11 -15 -30z"/>
<path d="M2982 1690 c-1 -32 4 -35 28 -20 11 7 12 10 2 10 -9 0 -11 7 -7 20 4
14 2 20 -8 20 -9 0 -14 -11 -15 -30z"/>
<path d="M4216 1693 c0 -15 6 -29 11 -30 15 -5 26 14 13 22 -8 5 -7 11 1 21 9
11 8 14 -8 14 -14 0 -18 -7 -17 -27z"/>
<path d="M5362 1690 c0 -19 4 -30 13 -30 9 0 13 11 13 30 -1 17 -6 30 -13 30
-7 0 -12 -13 -13 -30z"/>
<path d="M721 678 c-11 -30 -6 -38 25 -38 22 0 25 4 22 27 -4 36 -35 43 -47
11z"/>
<path d="M464 676 c-10 -26 4 -48 28 -44 33 4 33 52 0 56 -13 2 -25 -3 -28
-12z"/>
<path d="M1897 683 c-14 -13 -6 -42 13 -48 27 -9 40 1 40 31 0 18 -5 24 -23
24 -13 0 -27 -3 -30 -7z"/>
<path d="M3097 683 c-14 -13 -6 -42 13 -48 27 -9 40 1 40 31 0 18 -5 24 -23
24 -13 0 -27 -3 -30 -7z"/>
<path d="M4332 664 c5 -44 55 -38 54 6 -1 9 -13 16 -29 18 -26 3 -28 1 -25
-24z"/>
<path d="M5473 674 c-8 -20 21 -49 41 -41 9 4 16 18 16 32 0 20 -5 25 -25 25
-14 0 -28 -7 -32 -16z"/>
<path d="M1642 653 c2 -22 8 -27 23 -25 46 8 45 52 0 52 -23 0 -26 -4 -23 -27z"/>
<path d="M2842 653 c2 -22 8 -27 23 -25 46 8 45 52 0 52 -23 0 -26 -4 -23 -27z"/>
<path d="M4072 653 c2 -22 8 -28 28 -28 20 0 26 6 28 28 3 24 0 27 -28 27 -28
0 -31 -3 -28 -27z"/>
<path d="M5220 655 c0 -23 4 -26 28 -23 19 2 27 9 27 23 0 14 -8 21 -27 23
-24 3 -28 0 -28 -23z"/>
<path d="M605 620 c4 -13 2 -20 -7 -20 -8 0 -5 -5 5 -11 14 -8 22 -8 30 0 8 8
8 11 -2 11 -8 0 -10 7 -6 20 5 14 2 20 -10 20 -12 0 -15 -6 -10 -20z"/>
<path d="M1784 610 c1 -17 6 -30 11 -30 5 0 10 13 11 30 1 18 -3 30 -11 30 -8
0 -12 -12 -11 -30z"/>
<path d="M2984 610 c1 -17 6 -30 11 -30 5 0 10 13 11 30 1 18 -3 30 -11 30 -8
0 -12 -12 -11 -30z"/>
<path d="M4215 613 c2 -16 4 -31 4 -35 1 -5 6 -8 12 -8 7 0 9 10 5 25 -4 15
-2 25 4 25 6 0 8 5 5 10 -13 22 -34 10 -30 -17z"/>
<path d="M5364 610 c2 -39 20 -39 22 0 1 18 -3 30 -11 30 -8 0 -12 -12 -11
-30z"/>
</g>
</svg>
